<svg xmlns="http://www.w3.org/2000/svg" viewBox="0 0 750 500"><g id="freepik--background-complete--inject-68"><rect x="549.78" y="234.99" width="11.32" height="136.75" style="fill:#e0e0e0"></rect><rect x="552.61" y="98.9" width="5.66" height="151.12" style="fill:#e0e0e0"></rect><circle cx="555.44" cy="104.13" r="17.5" style="fill:#ebebeb"></circle><path d="M559.18,123h-7.77a1.06,1.06,0,0,1-1.06-1.07h0a1.05,1.05,0,0,1,1.06-1.06h7.77a1.06,1.06,0,0,1,1.07,1.06h0A1.07,1.07,0,0,1,559.18,123Z" style="fill:#e0e0e0"></path><path d="M564,235h-17.2a1.17,1.17,0,0,1-1.18-1.17h0a1.18,1.18,0,0,1,1.18-1.18H564a1.17,1.17,0,0,1,1.17,1.18h0A1.17,1.17,0,0,1,564,235Z" style="fill:#e0e0e0"></path><rect x="63.26" y="233.65" width="11.32" height="136.75" style="fill:#e0e0e0"></rect><rect x="66.09" y="97.56" width="5.66" height="151.12" style="fill:#e0e0e0"></rect><circle cx="68.92" cy="102.79" r="17.5" transform="translate(-41.06 159.54) rotate(-83.45)" style="fill:#ebebeb"></circle><path d="M72.66,121.67H64.89a1.07,1.07,0,0,1-1.07-1.07h0a1.07,1.07,0,0,1,1.07-1.07h7.77a1.07,1.07,0,0,1,1.07,1.07h0A1.07,1.07,0,0,1,72.66,121.67Z" style="fill:#e0e0e0"></path><path d="M77.46,233.65H60.25a1.18,1.18,0,0,1-1.17-1.18h0a1.17,1.17,0,0,1,1.17-1.17H77.46a1.17,1.17,0,0,1,1.17,1.17h0A1.17,1.17,0,0,1,77.46,233.65Z" style="fill:#e0e0e0"></path><rect x="318.52" y="72.81" width="93.56" height="296.53" style="fill:#f5f5f5"></rect><rect x="365.31" y="72.81" width="46.78" height="295.71" style="fill:#ebebeb"></rect><rect x="329.21" y="43.7" width="33.04" height="29.11" style="fill:#f5f5f5"></rect><rect x="354.37" y="43.7" width="7.87" height="29.11" style="fill:#ebebeb"></rect><polyline points="310.73 72.81 310.73 71.11 414.83 71.11 414.83 72.81" style="fill:#e0e0e0"></polyline><rect x="336.99" y="85.51" width="7.92" height="16.7" style="fill:#fafafa"></rect><path d="M365.31,108.76c0,.18-10.48.32-23.39.32s-23.4-.14-23.4-.32,10.47-.32,23.4-.32S365.31,108.59,365.31,108.76Z" style="fill:#e0e0e0"></path><rect x="384.18" y="85.51" width="7.92" height="16.7" style="fill:#e0e0e0"></rect><path d="M412.5,108.76c0,.18-10.48.32-23.39.32s-23.4-.14-23.4-.32,10.47-.32,23.4-.32S412.5,108.59,412.5,108.76Z" style="fill:#e0e0e0"></path><rect x="384.18" y="118.66" width="7.92" height="16.7" style="fill:#e0e0e0"></rect><path d="M412.5,141.92c0,.17-10.48.32-23.39.32s-23.4-.15-23.4-.32,10.47-.32,23.4-.32S412.5,141.74,412.5,141.92Z" style="fill:#e0e0e0"></path><rect x="384.18" y="152.82" width="7.92" height="16.7" style="fill:#e0e0e0"></rect><path d="M412.5,176.07c0,.18-10.48.32-23.39.32s-23.4-.14-23.4-.32,10.47-.32,23.4-.32S412.5,175.9,412.5,176.07Z" style="fill:#e0e0e0"></path><rect x="384.18" y="186.98" width="7.92" height="16.7" style="fill:#e0e0e0"></rect><path d="M412.5,210.23c0,.18-10.48.32-23.39.32s-23.4-.14-23.4-.32,10.47-.32,23.4-.32S412.5,210.05,412.5,210.23Z" style="fill:#e0e0e0"></path><rect x="384.18" y="220.15" width="7.92" height="16.7" style="fill:#e0e0e0"></rect><path d="M412.5,243.41c0,.17-10.48.32-23.39.32s-23.4-.15-23.4-.32,10.47-.32,23.4-.32S412.5,243.23,412.5,243.41Z" style="fill:#e0e0e0"></path><rect x="384.18" y="253.47" width="7.92" height="16.7" style="fill:#e0e0e0"></rect><rect x="384.18" y="287.22" width="7.92" height="16.7" style="fill:#e0e0e0"></rect><path d="M412.5,276.72c0,.18-10.48.32-23.39.32s-23.4-.14-23.4-.32,10.47-.32,23.4-.32S412.5,276.54,412.5,276.72Z" style="fill:#e0e0e0"></path><rect x="336.99" y="119.17" width="7.92" height="16.7" style="fill:#fafafa"></rect><path d="M365.31,142.42c0,.18-10.48.32-23.39.32s-23.4-.14-23.4-.32,10.47-.32,23.4-.32S365.31,142.25,365.31,142.42Z" style="fill:#e0e0e0"></path><rect x="336.99" y="152.83" width="7.92" height="16.7" style="fill:#fafafa"></rect><path d="M365.31,176.08c0,.18-10.48.32-23.39.32s-23.4-.14-23.4-.32,10.47-.31,23.4-.31S365.31,175.91,365.31,176.08Z" style="fill:#e0e0e0"></path><rect x="336.99" y="186.49" width="7.92" height="16.7" style="fill:#fafafa"></rect><path d="M365.31,209.75c0,.17-10.48.32-23.39.32s-23.4-.15-23.4-.32,10.47-.32,23.4-.32S365.31,209.57,365.31,209.75Z" style="fill:#e0e0e0"></path><rect x="336.99" y="220.15" width="7.92" height="16.7" style="fill:#fafafa"></rect><path d="M365.31,243.41c0,.17-10.48.32-23.39.32s-23.4-.15-23.4-.32,10.47-.32,23.4-.32S365.31,243.23,365.31,243.41Z" style="fill:#e0e0e0"></path><rect x="336.99" y="253.82" width="7.92" height="16.7" style="fill:#fafafa"></rect><path d="M365.31,277.07c0,.18-10.48.32-23.39.32s-23.4-.14-23.4-.32,10.47-.32,23.4-.32S365.31,276.89,365.31,277.07Z" style="fill:#e0e0e0"></path><rect x="336.99" y="287.48" width="7.92" height="16.7" style="fill:#fafafa"></rect><rect x="410.17" y="238.79" width="68.79" height="130.55" style="fill:#e0e0e0"></rect><rect x="446.71" y="238.79" width="32.25" height="130.55" style="fill:#ebebeb"></rect><rect x="424.59" y="251.07" width="6.18" height="15.03" style="fill:#f5f5f5"></rect><rect x="424.59" y="309.88" width="6.18" height="15.03" style="fill:#f5f5f5"></rect><path d="M446.71,272c0,.13-8.18.23-18.27.23s-18.27-.1-18.27-.23,8.18-.24,18.27-.24S446.71,271.87,446.71,272Z" style="fill:#f5f5f5"></path><rect x="424.59" y="280.7" width="6.18" height="15.03" style="fill:#f5f5f5"></rect><path d="M446.71,301.63c0,.13-8.18.23-18.27.23s-18.27-.1-18.27-.23,8.18-.24,18.27-.24S446.71,301.5,446.71,301.63Z" style="fill:#f5f5f5"></path><rect x="453.56" y="251.07" width="6.18" height="15.03" style="fill:#e0e0e0"></rect><rect x="466.97" y="251.07" width="6.18" height="15.03" style="fill:#e0e0e0"></rect><rect x="453.56" y="279.59" width="6.18" height="15.03" style="fill:#e0e0e0"></rect><rect x="466.97" y="279.59" width="6.18" height="15.03" style="fill:#e0e0e0"></rect><rect x="453.56" y="308.1" width="6.18" height="15.03" style="fill:#e0e0e0"></rect><rect x="466.97" y="308.1" width="6.18" height="15.03" style="fill:#e0e0e0"></rect><rect x="405" y="235.63" width="79.13" height="3.27" style="fill:#e0e0e0"></rect><path d="M479.44,239.21c0,.13-15.38.23-34.34.23s-34.34-.1-34.34-.23,15.38-.23,34.34-.23S479.44,239.08,479.44,239.21Z" style="fill:#ebebeb"></path><rect x="254.37" y="159.14" width="80.31" height="210.2" style="fill:#ebebeb"></rect><rect x="294.52" y="159.14" width="40.15" height="210.2" style="fill:#e0e0e0"></rect><rect x="263.54" y="134.15" width="28.36" height="24.99" style="fill:#ebebeb"></rect><rect x="285.14" y="134.15" width="6.76" height="24.99" style="fill:#e0e0e0"></rect><rect x="247.68" y="157.68" width="89.35" height="1.46" style="fill:#e0e0e0"></rect><rect x="270.22" y="170.03" width="6.8" height="14.33" style="fill:#fff"></rect><path d="M294.52,190c0,.15-9,.28-20.07.28s-20.08-.13-20.08-.28,9-.27,20.08-.27S294.52,189.84,294.52,190Z" style="fill:#e0e0e0"></path><rect x="310.73" y="170.03" width="6.8" height="14.33" style="fill:#f5f5f5"></rect><path d="M335,190c0,.15-9,.28-20.08.28s-20.08-.13-20.08-.28,9-.27,20.08-.27S335,189.84,335,190Z" style="fill:#ebebeb"></path><rect x="310.73" y="198.49" width="6.8" height="14.33" style="fill:#f5f5f5"></rect><path d="M335,218.45c0,.15-9,.27-20.08.27s-20.08-.12-20.08-.27,9-.27,20.08-.27S335,218.3,335,218.45Z" style="fill:#ebebeb"></path><rect x="310.73" y="227.81" width="6.8" height="14.33" style="fill:#f5f5f5"></rect><path d="M335,247.77c0,.15-9,.27-20.08.27s-20.08-.12-20.08-.27,9-.28,20.08-.28S335,247.62,335,247.77Z" style="fill:#ebebeb"></path><rect x="310.73" y="257.12" width="6.8" height="14.33" style="fill:#f5f5f5"></rect><path d="M335,277.08c0,.15-9,.28-20.08.28s-20.08-.13-20.08-.28,9-.27,20.08-.27S335,276.93,335,277.08Z" style="fill:#ebebeb"></path><rect x="310.73" y="285.6" width="6.8" height="14.33" style="fill:#f5f5f5"></rect><path d="M335,305.56c0,.15-9,.28-20.08.28s-20.08-.13-20.08-.28,9-.27,20.08-.27S335,305.41,335,305.56Z" style="fill:#ebebeb"></path><rect x="310.73" y="314.2" width="6.8" height="14.33" style="fill:#f5f5f5"></rect><rect x="310.73" y="343.16" width="6.8" height="14.33" style="fill:#f5f5f5"></rect><path d="M335,334.15c0,.16-9,.28-20.08.28s-20.08-.12-20.08-.28,9-.27,20.08-.27S335,334,335,334.15Z" style="fill:#ebebeb"></path><rect x="270.22" y="198.93" width="6.8" height="14.33" style="fill:#fff"></rect><path d="M294.52,218.88c0,.16-9,.28-20.07.28s-20.08-.12-20.08-.28,9-.27,20.08-.27S294.52,218.73,294.52,218.88Z" style="fill:#e0e0e0"></path><rect x="270.22" y="227.82" width="6.8" height="14.33" style="fill:#fff"></rect><path d="M294.52,247.78c0,.15-9,.27-20.07.27s-20.08-.12-20.08-.27,9-.28,20.08-.28S294.52,247.63,294.52,247.78Z" style="fill:#e0e0e0"></path><rect x="270.22" y="256.71" width="6.8" height="14.33" style="fill:#fff"></rect><path d="M294.52,276.67c0,.15-9,.27-20.07.27s-20.08-.12-20.08-.27,9-.27,20.08-.27S294.52,276.52,294.52,276.67Z" style="fill:#e0e0e0"></path><rect x="270.22" y="285.6" width="6.8" height="14.33" style="fill:#fff"></rect><path d="M294.52,305.56c0,.15-9,.28-20.07.28s-20.08-.13-20.08-.28,9-.27,20.08-.27S294.52,305.41,294.52,305.56Z" style="fill:#e0e0e0"></path><rect x="270.22" y="314.49" width="6.8" height="14.33" style="fill:#fff"></rect><path d="M294.52,334.45c0,.15-9,.28-20.07.28s-20.08-.13-20.08-.28,9-.27,20.08-.27S294.52,334.3,294.52,334.45Z" style="fill:#e0e0e0"></path><rect x="270.22" y="343.39" width="6.8" height="14.33" style="fill:#fff"></rect><rect x="206.39" y="238.79" width="68.79" height="130.55" style="fill:#e0e0e0"></rect><rect x="242.93" y="238.79" width="32.25" height="130.55" style="fill:#ebebeb"></rect><rect x="220.81" y="251.07" width="6.18" height="15.03" style="fill:#f5f5f5"></rect><rect x="220.81" y="309.88" width="6.18" height="15.03" style="fill:#f5f5f5"></rect><path d="M242.93,272c0,.13-8.18.23-18.27.23s-18.27-.1-18.27-.23,8.18-.24,18.27-.24S242.93,271.87,242.93,272Z" style="fill:#f5f5f5"></path><rect x="220.81" y="280.7" width="6.18" height="15.03" style="fill:#f5f5f5"></rect><path d="M242.93,301.63c0,.13-8.18.23-18.27.23s-18.27-.1-18.27-.23,8.18-.24,18.27-.24S242.93,301.5,242.93,301.63Z" style="fill:#f5f5f5"></path><rect x="249.78" y="251.07" width="6.18" height="15.03" style="fill:#e0e0e0"></rect><rect x="263.19" y="251.07" width="6.18" height="15.03" style="fill:#e0e0e0"></rect><rect x="249.78" y="279.59" width="6.18" height="15.03" style="fill:#e0e0e0"></rect><rect x="263.19" y="279.59" width="6.18" height="15.03" style="fill:#e0e0e0"></rect><rect x="249.78" y="308.1" width="6.18" height="15.03" style="fill:#e0e0e0"></rect><rect x="263.19" y="308.1" width="6.18" height="15.03" style="fill:#e0e0e0"></rect><rect x="201.22" y="235.63" width="79.13" height="3.27" style="fill:#e0e0e0"></rect><path d="M275.66,239.21c0,.13-15.37.23-34.34.23s-34.34-.1-34.34-.23,15.38-.23,34.34-.23S275.66,239.08,275.66,239.21Z" style="fill:#ebebeb"></path><rect x="161.19" y="287.75" width="61.58" height="81.23" style="fill:#ebebeb"></rect><rect x="193.89" y="287.75" width="28.87" height="81.23" style="fill:#e0e0e0"></rect><rect x="174.1" y="298.75" width="5.54" height="13.45" style="fill:#f5f5f5"></rect><rect x="174.1" y="351.4" width="5.54" height="13.45" style="fill:#f5f5f5"></rect><path d="M193.89,317.48c0,.15-7.32.27-16.35.27s-16.35-.12-16.35-.27,7.32-.28,16.35-.28S193.89,317.33,193.89,317.48Z" style="fill:#f5f5f5"></path><rect x="174.1" y="325.27" width="5.54" height="13.45" style="fill:#f5f5f5"></rect><path d="M193.89,344c0,.15-7.32.28-16.35.28s-16.35-.13-16.35-.28,7.32-.27,16.35-.27S193.89,343.85,193.89,344Z" style="fill:#f5f5f5"></path><rect x="200.02" y="298.75" width="5.54" height="13.45" style="fill:#f5f5f5"></rect><rect x="212.04" y="298.75" width="5.54" height="13.45" style="fill:#f5f5f5"></rect><rect x="200.02" y="324.27" width="5.54" height="13.45" style="fill:#f5f5f5"></rect><rect x="212.04" y="324.27" width="5.54" height="13.45" style="fill:#f5f5f5"></rect><rect x="200.02" y="349.8" width="5.54" height="13.45" style="fill:#f5f5f5"></rect><rect x="212.04" y="349.8" width="5.54" height="13.45" style="fill:#f5f5f5"></rect><rect x="156.56" y="284.92" width="70.84" height="2.93" style="fill:#e0e0e0"></rect><path d="M223.2,288.13c0,.15-13.77.27-30.74.27s-30.74-.12-30.74-.27,13.76-.28,30.74-.28S223.2,288,223.2,288.13Z" style="fill:#ebebeb"></path><path d="M435.1,128.1h56.16s-5-9-19.42-7.73c-13.81,1.26-14.51-4.44-21.53-5.14S437.44,119.91,435.1,128.1Z" style="fill:#ebebeb"></path><path d="M200.88,83.46H257s-5-9-19.42-7.72c-13.81,1.26-14.51-4.44-21.53-5.15S203.22,75.27,200.88,83.46Z" style="fill:#ebebeb"></path><path d="M571.48,138.78H673.69s-9-16.45-35.35-14c-25.12,2.28-26.4-8.1-39.18-9.37S575.74,123.87,571.48,138.78Z" style="fill:#fafafa"></path><path d="M603.2,95.72h88.73s-7.84-14.28-30.68-12.2c-21.82,2-22.93-7-34-8.13S606.9,82.78,603.2,95.72Z" style="fill:#ebebeb"></path></g><g id="freepik--Floor--inject-68"><path d="M673.05,443.12c0,.15-141.38.26-315.75.26s-315.78-.11-315.78-.26,141.36-.26,315.78-.26S673.05,443,673.05,443.12Z" style="fill:#263238"></path><rect x="34.59" y="369.68" width="54.24" height="12.76" style="fill:#ebebeb"></rect><rect x="90.06" y="369.68" width="54.24" height="12.76" style="fill:#f5f5f5"></rect><rect x="145.53" y="369.68" width="54.24" height="12.76" style="fill:#ebebeb"></rect><rect x="201" y="369.68" width="54.24" height="12.76" style="fill:#f5f5f5"></rect><rect x="256.47" y="369.68" width="54.24" height="12.76" style="fill:#ebebeb"></rect><rect x="311.94" y="369.68" width="54.24" height="12.76" style="fill:#f5f5f5"></rect><rect x="367.41" y="369.68" width="54.24" height="12.76" style="fill:#ebebeb"></rect><rect x="422.88" y="369.68" width="54.24" height="12.76" style="fill:#ebebeb"></rect><rect x="478.35" y="369.68" width="54.24" height="12.76" style="fill:#f5f5f5"></rect><rect x="533.82" y="369.68" width="54.24" height="12.76" style="fill:#ebebeb"></rect><rect x="589.29" y="369.68" width="54.24" height="12.76" style="fill:#f5f5f5"></rect><rect x="644.77" y="369.68" width="54.24" height="12.76" style="fill:#ebebeb"></rect><path d="M721.2,369.68c0,.15-153.72.26-343.29.26s-343.32-.11-343.32-.26,153.68-.26,343.32-.26S721.2,369.54,721.2,369.68Z" style="fill:#263238"></path><path d="M721.2,382.44c0,.14-153.72.26-343.29.26s-343.32-.12-343.32-.26,153.68-.26,343.32-.26S721.2,382.3,721.2,382.44Z" style="fill:#263238"></path><path d="M89.49,382.38a62.94,62.94,0,0,1,0-11.43,62.94,62.94,0,0,1,0,11.43Z" style="fill:#263238"></path><path d="M145,382.38A62.94,62.94,0,0,1,145,371a62.94,62.94,0,0,1,0,11.43Z" style="fill:#263238"></path><path d="M200.52,382.38a62.94,62.94,0,0,1,0-11.43,62.94,62.94,0,0,1,0,11.43Z" style="fill:#263238"></path><path d="M256,382.38A62.94,62.94,0,0,1,256,371a62.94,62.94,0,0,1,0,11.43Z" style="fill:#263238"></path><path d="M311.55,382.38a62.94,62.94,0,0,1,0-11.43,62.94,62.94,0,0,1,0,11.43Z" style="fill:#263238"></path><path d="M367.06,382.38a62.94,62.94,0,0,1,0-11.43,62.94,62.94,0,0,1,0,11.43Z" style="fill:#263238"></path><path d="M422.57,382.38a62.94,62.94,0,0,1,0-11.43,62.94,62.94,0,0,1,0,11.43Z" style="fill:#263238"></path><path d="M478.09,382.38a62.94,62.94,0,0,1,0-11.43,62.94,62.94,0,0,1,0,11.43Z" style="fill:#263238"></path><path d="M533.6,382.38a62.94,62.94,0,0,1,0-11.43,62.94,62.94,0,0,1,0,11.43Z" style="fill:#263238"></path><path d="M589.11,382.38a62.94,62.94,0,0,1,0-11.43,62.94,62.94,0,0,1,0,11.43Z" style="fill:#263238"></path><path d="M644.63,382.38a62.94,62.94,0,0,1,0-11.43,62.94,62.94,0,0,1,0,11.43Z" style="fill:#263238"></path><path d="M700.14,382.38a62.94,62.94,0,0,1,0-11.43,62.94,62.94,0,0,1,0,11.43Z" style="fill:#263238"></path></g><g id="freepik--Character--inject-68"><path d="M380.44,198.7c-.19-4.6,2.79-8.71,3.59-13.25.89-5.11-1.42-14-7-17.24a25.43,25.43,0,0,0-12.26-3.71,19.4,19.4,0,0,0-11.35,3.88c-2.95,2.39-4.83,5.82-6.64,9.16a14.34,14.34,0,0,0-2.08,5.58c-.16,2,.73,4.21,2.58,5a8.65,8.65,0,0,0-3.59.26,2.92,2.92,0,0,0-2,2.71c.09,1.2,1.63,2.16,2.6,1.44a15.31,15.31,0,0,0-5.93,12.4c0,1.58.33,3.22-.24,4.69-1.07,2.74-4.43,3.56-7,5a9.06,9.06,0,0,0-4.65,6.15,6.06,6.06,0,0,0,3.37,6.55c1.51.59,3.41.52,4.46,1.77s.62,3.16.58,4.83a8.7,8.7,0,0,0,16.22,4.58c1.7,3.38,6.33,4.56,9.84,3.14s5.9-4.83,7-8.45a31.3,31.3,0,0,0,1.08-8.85,17.67,17.67,0,0,0,7.85.34c4.35-.91,8.38-4.35,8.86-8.77C386.4,209.87,380.68,204.77,380.44,198.7ZM369,201.23l0-16.2,4.93-4.43Z" style="fill:#263238"></path><path d="M338.65,227.24s0,0-.09.11a2,2,0,0,1-.32.28,3.84,3.84,0,0,1-1.48.7,5.08,5.08,0,0,1-5.39-2,6.66,6.66,0,0,1-1.16-4,8,8,0,0,1,1.62-4.49,12.07,12.07,0,0,1,4-3.42c1.6-.89,3.35-1.59,5-2.53a9.59,9.59,0,0,0,3.89-3.7,10.05,10.05,0,0,0,.82-5,37.52,37.52,0,0,1,0-4.74,8.33,8.33,0,0,1,1.4-3.92,8.83,8.83,0,0,1,4.78-3.51,5.85,5.85,0,0,1,2.17-.28,16.71,16.71,0,0,0-2.11.47,8.83,8.83,0,0,0-4.54,3.53A8.08,8.08,0,0,0,346,198.5a37.18,37.18,0,0,0,.06,4.69,10.53,10.53,0,0,1-.84,5.2,10,10,0,0,1-4.09,3.92c-1.69,1-3.44,1.66-5,2.53a11.7,11.7,0,0,0-3.88,3.25,7.56,7.56,0,0,0-1.57,4.23,6.3,6.3,0,0,0,1,3.77,4.72,4.72,0,0,0,2.58,1.92,5.19,5.19,0,0,0,2.47.13A5.32,5.32,0,0,0,338.65,227.24Z" style="fill:#455a64"></path><path d="M310.13,407.66c0-.9,37.78-54.66,37.78-54.66l20.87,8-47.61,54.86Z" style="fill:#ffbe9d"></path><path d="M310.13,407.66l-.34.44-6.48,8.46-8,5.51L306,442.79h11.84s-.85-2.85-6.55-4.32l-.38-11.37,10.23-11.24" style="fill:#FF725E"></path><polygon points="295.27 422.07 306.03 442.79 317.87 442.8 316.54 441.02 306.91 440.48 296.98 420.9 295.27 422.07" style="fill:#fff;opacity:0.6000000000000001"></polygon><path d="M311.25,433.27c-.09.12-.77-.27-1.69-.24s-1.59.4-1.68.29.56-.8,1.67-.81S311.35,433.18,311.25,433.27Z" style="fill:#263238"></path><path d="M311.06,430.45c-.12.08-.65-.62-1.59-.8s-1.7.25-1.78.12.1-.25.43-.43a2.22,2.22,0,0,1,2.71.55C311.06,430.18,311.11,430.42,311.06,430.45Z" style="fill:#263238"></path><path d="M311.14,426.83c-.13.06-.54-.62-1.36-.91s-1.57,0-1.63-.15.12-.22.45-.34a2,2,0,0,1,1.35,0,2,2,0,0,1,1.06.85C311.18,426.58,311.2,426.8,311.14,426.83Z" style="fill:#263238"></path><path d="M314.31,424c-.14.05-.48-.62-1.21-1.1s-1.47-.55-1.48-.7.88-.33,1.77.27S314.45,424,314.31,424Z" style="fill:#263238"></path><path d="M315.85,421.59c-.06,0-.45-.44-1-1.24l-1-1.42a3.86,3.86,0,0,1-.55-1,1,1,0,0,1,.07-.72.75.75,0,0,1,.72-.37,2.14,2.14,0,0,1,1.1.57,3.93,3.93,0,0,1,.72.82,4.06,4.06,0,0,1,.62,1.71c.12,1-.22,1.65-.27,1.62a11.46,11.46,0,0,0-.09-1.56,4.27,4.27,0,0,0-.65-1.5,3.89,3.89,0,0,0-.65-.7,1.89,1.89,0,0,0-.82-.44.2.2,0,0,0-.22.1.49.49,0,0,0,0,.34,4.62,4.62,0,0,0,.46.82l.91,1.49A5,5,0,0,1,315.85,421.59Z" style="fill:#263238"></path><path d="M316.28,421.94c-.06,0,0-.62.63-1.34a3,3,0,0,1,3.51-.63.55.55,0,0,1,.18.43.59.59,0,0,1-.14.37,1.55,1.55,0,0,1-.43.37,4.68,4.68,0,0,1-.83.48,5,5,0,0,1-1.56.44c-.92.09-1.48-.08-1.46-.14s.56,0,1.4-.23a5.59,5.59,0,0,0,1.41-.5,6.06,6.06,0,0,0,.75-.46,1.16,1.16,0,0,0,.3-.27c.06-.1,0-.07,0-.1a.8.8,0,0,0-.35-.13,3.11,3.11,0,0,0-.44-.07,2.93,2.93,0,0,0-.84.06,3,3,0,0,0-1.28.65C316.53,421.43,316.36,422,316.28,421.94Z" style="fill:#263238"></path><circle cx="303.32" cy="421.72" r="1.4" style="fill:#fff;opacity:0.6000000000000001"></circle><polygon points="378.02 356.87 407.51 421.19 422.77 421.19 402.22 354.84 378.02 356.87" style="fill:#ffbe9d"></polygon><path d="M407.19,420.38l8.92,22.95,28.62-10.94c-1.22-2.67-18.12-2.5-18.12-2.5L421.5,415Z" style="fill:#FF725E"></path><g style="opacity:0.6000000000000001"><path d="M417.28,432a1.24,1.24,0,0,0-.29,1.64,1.2,1.2,0,0,0,1.62.31,1.32,1.32,0,0,0,.31-1.74,1.26,1.26,0,0,0-1.73-.14" style="fill:#fff"></path></g><path d="M416.11,443.33,415.3,441,443,431.37s1.49.07,1.69,1Z" style="fill:#fff;opacity:0.6000000000000001"></path><path d="M427,429.57c.05.14-.63.47-1.14,1.18s-.66,1.44-.81,1.44-.25-.89.39-1.75S427,429.43,427,429.57Z" style="fill:#263238"></path><path d="M430.49,429.66c.09.13-.43.6-.68,1.37s-.14,1.45-.28,1.5-.54-.71-.21-1.67S430.44,429.53,430.49,429.66Z" style="fill:#263238"></path><path d="M433.57,432.6c-.11.08-.58-.54-.51-1.44s.6-1.46.71-1.37-.15.66-.19,1.4S433.71,432.54,433.57,432.6Z" style="fill:#263238"></path><path d="M425.47,426.29c0,.15-.72.21-1.49.56s-1.29.84-1.41.75.28-.82,1.2-1.22S425.5,426.16,425.47,426.29Z" style="fill:#263238"></path><path d="M423.49,423.16c0,.06-.49.35-1.43.54a6.7,6.7,0,0,1-1.68.11,5.93,5.93,0,0,1-1-.12,1.84,1.84,0,0,1-.56-.17.66.66,0,0,1-.35-.72.83.83,0,0,1,.49-.55,2.36,2.36,0,0,1,.57-.14,5.77,5.77,0,0,1,1,0,5.37,5.37,0,0,1,1.65.36c.9.36,1.33.8,1.29.84s-.54-.24-1.41-.49a6.18,6.18,0,0,0-1.55-.23,5.76,5.76,0,0,0-.92.06c-.34,0-.59.13-.62.3s0,.08.09.15a1.64,1.64,0,0,0,.42.12,6,6,0,0,0,.92.14,8.48,8.48,0,0,0,1.59,0A9.47,9.47,0,0,1,423.49,423.16Z" style="fill:#263238"></path><path d="M423.39,423.43s-.51-.36-.91-1.24a5,5,0,0,1-.37-2.65,1.28,1.28,0,0,1,.64-1.08.71.71,0,0,1,.75.17,2.28,2.28,0,0,1,.35.47,3.51,3.51,0,0,1,.37,1,3.58,3.58,0,0,1-.05,1.71c-.27,1-.79,1.35-.82,1.3a12.81,12.81,0,0,0,.46-1.38,3.46,3.46,0,0,0-.06-1.52,2.91,2.91,0,0,0-.34-.82c-.16-.29-.37-.49-.47-.41s-.3.37-.33.66a5.68,5.68,0,0,0-.05.91,5.24,5.24,0,0,0,.27,1.54C423.11,422.91,423.46,423.38,423.39,423.43Z" style="fill:#263238"></path><path d="M416.64,297.14l.23.29c.44.09.91.19,1.44.27a6.68,6.68,0,0,0,2.36,0,10.52,10.52,0,0,0,2.83-.81c.79-.44,1.71.3,1.37,1.05s-2.47,2-5.38,2.29.88,2.83,2.25,3.8,5.46,4.16,5.5,4.81c.05,1-1,1.2-2.32.2s-5.58-3.7-6.05-3,6.56,5.57,6.56,5.57,1.67.79,1.14,1.67c-.94,1.59-8-4.1-8.69-4.65-.46-.39-1,.4-.49.79s7.12,4.65,6.18,6.28c-.72,1.25-5.88-4.62-7.74-4.74s4.37,4.05,3.63,5.22c-.28.43-.54.72-3.77-2.2a99.09,99.09,0,0,1-7.36-8.16Z" style="fill:#ffbe9d"></path><polygon points="382.03 219.85 393.07 275.91 417.79 296.46 408.18 308.14 374.37 281.18 367.47 225.18 382.03 219.85" style="fill:#FF725E"></polygon><polygon points="382.03 219.85 393.07 275.91 417.79 296.46 408.18 308.14 374.37 281.18 367.47 225.18 382.03 219.85" style="opacity:0.30000000000000004"></polygon><path d="M384.64,273.18l-1.46-.24c.46-5.85,1.32-12.41,4.18-16.72,2.4-3.62,2.6-6.33,2.4-8,.6-6.32-4.46-10.26-5.18-16.65-.79-9.26-.76-14.38-4.78-15.42l-19.14-3.48s-22.23-3.22-17.07,24.33l9.94,31.33,3.27,2.12c-4.53,3.35-14.68,12.91-17.78,32.7-4,25.73-17,82.28-17,82.28s19-8.86,35.95,0,35.55,12.48,46.76,7.24,11.24-7.24,11.24-7.24Z" style="fill:#FF725E"></path><path d="M351.3,277.6s0,.09-.15.23l-.48.62c-.45.54-1,1.37-1.77,2.47a37.18,37.18,0,0,0-4.43,10.18,63.49,63.49,0,0,0-2,16.37c-.08,6.23.46,13.09.45,20.31a76.8,76.8,0,0,1-.67,10.53,73.91,73.91,0,0,1-2,9.62,114.67,114.67,0,0,1-5.76,15.58c-1.93,4.32-3.63,7.74-4.81,10.11-.59,1.15-1.05,2.05-1.38,2.71-.16.28-.28.51-.38.7a1.05,1.05,0,0,1-.14.23,1.16,1.16,0,0,1,.1-.26c.08-.19.19-.43.32-.72.31-.67.75-1.59,1.3-2.75,1.12-2.39,2.77-5.84,4.65-10.17a116.76,116.76,0,0,0,5.64-15.56,72.87,72.87,0,0,0,2.63-20c0-7.19-.52-14-.41-20.32A62.54,62.54,0,0,1,344.12,291a35.62,35.62,0,0,1,4.62-10.19A22.39,22.39,0,0,1,351.3,277.6Z" style="fill:#263238"></path><path d="M411.61,368.52a12.17,12.17,0,0,0-5.12-.09,19.61,19.61,0,0,0-5.63,2.18,76.3,76.3,0,0,0-6.68,4.5c-2.45,1.69-5.27,3.58-8.8,4.3a15.85,15.85,0,0,1-11-1.92,15.53,15.53,0,0,1-4.59-4.06,11.08,11.08,0,0,1-2.34-5.94,6.87,6.87,0,0,1,.56-3.3,5.28,5.28,0,0,1,2.34-2.49,5.6,5.6,0,0,1,3.42-.59,5.45,5.45,0,0,1,3.09,1.66,5.33,5.33,0,0,1,1.44,3.2,6.24,6.24,0,0,1-.74,3.38,9.37,9.37,0,0,1-5,4.28,14.45,14.45,0,0,1-6.35.79,21.73,21.73,0,0,1-6-1.42,70,70,0,0,1-9.92-5.31,39.91,39.91,0,0,0-8.79-4.15,16.26,16.26,0,0,0-7.89-.57,12.23,12.23,0,0,0-5.41,2.53,9.44,9.44,0,0,0-2.41,2.93c-.41.77-.52,1.23-.56,1.22a1.68,1.68,0,0,1,.1-.33,5.16,5.16,0,0,1,.37-.94,9.13,9.13,0,0,1,2.37-3,12.43,12.43,0,0,1,5.48-2.65,16.48,16.48,0,0,1,8.06.49,40.51,40.51,0,0,1,8.9,4.13,69.46,69.46,0,0,0,9.87,5.24,21.68,21.68,0,0,0,5.83,1.38,14,14,0,0,0,6.12-.78,8.79,8.79,0,0,0,4.76-4,5.69,5.69,0,0,0,.68-3.1,4.78,4.78,0,0,0-1.3-2.88,4.86,4.86,0,0,0-2.79-1.51,5.07,5.07,0,0,0-3.09.54,4.77,4.77,0,0,0-2.12,2.25,6.36,6.36,0,0,0-.52,3,10.68,10.68,0,0,0,2.23,5.68,15,15,0,0,0,4.44,3.94A15.47,15.47,0,0,0,385.29,379c3.43-.68,6.23-2.52,8.68-4.18a72.08,72.08,0,0,1,6.75-4.46,19.28,19.28,0,0,1,5.73-2.12,11.31,11.31,0,0,1,3.86,0A5.83,5.83,0,0,1,411.61,368.52Z" style="fill:#ebebeb"></path><g style="opacity:0.30000000000000004"><path d="M342,328c5.66-.49,11.6-1.42,16.05-5,3.41-2.69,5.6-6.67,7-10.79a38.27,38.27,0,0,0,1.28-19.6c-.37-1.86-.85-3.92.12-5.55s3.28-2.26,5.29-2.28c2.54,0,5.06.48,7.59.4s5.24-.87,6.74-2.91l-26.16-2.56c-2.27-.23-4.75-.4-6.67.84s-2.83,3.7-3.55,5.95q-3.17,10-6.35,20a56.43,56.43,0,0,0-2.62,10.58,18.82,18.82,0,0,0,1.6,10.64"></path></g><path d="M337.39,274.28c-5.29,4.31-11.11,11.89-15.09,17.43s-6.51,12.47-5.4,19.2c1.32,7.94,7.88,14.61,15.68,16.58a24.59,24.59,0,0,0,22.33-6.12,29,29,0,0,0,8.74-21.75c-.28-10.42-5.66-20.35-5-30.75a123.83,123.83,0,0,1,3.26-21c2.35-10.43.17-23.57-5.31-32.76a7.84,7.84,0,0,0-3.24-3.4c-1.45-.65-.47.39-1.05,1.87s.66,3.26,1.72,4.63c4,5.23,5.56,12.07,5.42,18.68s-1.81,13.08-3.63,19.43c-1.4,4.93-2.95,9.95-6,14.09s-7.34,4.06-12.46,3.83" style="fill:#455a64"></path><path d="M351.93,278.09a1.64,1.64,0,0,1-.09.45c-.09.29-.19.72-.39,1.25a27.63,27.63,0,0,1-2,4.41,30.72,30.72,0,0,1-11,11.39c-2.64,1.61-5.56,2.77-8.35,2.63a7.46,7.46,0,0,1-6.2-3.36,5.58,5.58,0,0,1-.42-4.76,3.93,3.93,0,0,1,.68-1.14c.21-.22.32-.33.34-.32a6.28,6.28,0,0,0-.83,1.53,5.47,5.47,0,0,0,.55,4.5,7.1,7.1,0,0,0,5.9,3.07c2.64.11,5.46-1,8.07-2.6A31.66,31.66,0,0,0,349.16,284a33.62,33.62,0,0,0,2.1-4.3A15.5,15.5,0,0,1,351.93,278.09Z" style="fill:#263238"></path><path d="M330.2,295.53a2.41,2.41,0,0,1,.88-.36,4.05,4.05,0,0,1,1.11-.17,2.06,2.06,0,0,1,1.44.53,2.32,2.32,0,0,1,.67,1.74,3.52,3.52,0,0,1-.71,2,12,12,0,0,1-1.53,1.68,6.27,6.27,0,0,1-2,1.4,3.13,3.13,0,0,1-2.53-.09,2.22,2.22,0,0,1-1.21-2,4.12,4.12,0,0,1,.57-2,6.7,6.7,0,0,1,1.06-1.46,6.51,6.51,0,0,1,2.12-1.48,2.62,2.62,0,0,1,.91-.26,9.32,9.32,0,0,0-2.76,2,5.22,5.22,0,0,0-1.42,3.23,1.73,1.73,0,0,0,1,1.59,2.7,2.7,0,0,0,2.11.05,5.76,5.76,0,0,0,1.88-1.28A12.19,12.19,0,0,0,333.2,299a3.1,3.1,0,0,0,.67-1.72,1.94,1.94,0,0,0-.5-1.47,2.49,2.49,0,0,0-2.25-.42A4.42,4.42,0,0,1,330.2,295.53Z" style="fill:#263238"></path><path d="M349.58,325.32c-.05,0,.16-.46.31-1.32a6.9,6.9,0,0,0-.34-3.6,6.43,6.43,0,0,0-1.3-2.11,6.08,6.08,0,0,0-2.38-1.53,15.82,15.82,0,0,0-6.6-.48,40.16,40.16,0,0,0-11.88,2.82c-1.45.6-2.59,1.15-3.38,1.54a8.43,8.43,0,0,1-1.24.59,5.79,5.79,0,0,1,1.14-.76,33.74,33.74,0,0,1,3.34-1.71,37.29,37.29,0,0,1,12-3,16,16,0,0,1,6.82.55,6.37,6.37,0,0,1,2.53,1.69,6.69,6.69,0,0,1,1.33,2.28,6.8,6.8,0,0,1,.19,3.76,4.1,4.1,0,0,1-.33,1C349.66,325.23,349.6,325.33,349.58,325.32Z" style="fill:#263238"></path><path d="M350.45,313.29A3.9,3.9,0,0,1,349,315.5a3.85,3.85,0,0,1-2.33,1.23c-.06-.13,1-.67,2-1.61S350.31,313.22,350.45,313.29Z" style="fill:#263238"></path><path d="M351.9,315.52c.12.06-.5,1.12-1.83,1.7a3,3,0,0,1-2.5.22c0-.16,1.1-.16,2.29-.7S351.79,315.42,351.9,315.52Z" style="fill:#263238"></path><path d="M321,318.1c.14-.06.53.59,1.22,1.19s1.38.91,1.34,1-.9,0-1.68-.66S320.84,318.14,321,318.1Z" style="fill:#263238"></path><path d="M341.25,302.57a8.46,8.46,0,0,1,1.31-2.6,8.57,8.57,0,0,1,1.76-2.33,8.46,8.46,0,0,1-1.31,2.6A8.35,8.35,0,0,1,341.25,302.57Z" style="fill:#ebebeb"></path><path d="M353.19,306.57c-.09.11-1-.58-1.82-1.74a4.23,4.23,0,0,1-1-2.33c.14-.05.65.93,1.41,2S353.29,306.46,353.19,306.57Z" style="fill:#ebebeb"></path><path d="M356.3,293.74c.09.12-.64.8-1.62,1.52s-1.85,1.2-1.94,1.09.65-.8,1.63-1.51S356.22,293.63,356.3,293.74Z" style="fill:#ebebeb"></path><path d="M354.55,286.15c-.15,0-.36-.71-.49-1.63s-.11-1.67,0-1.69.36.71.49,1.62S354.69,286.13,354.55,286.15Z" style="fill:#ebebeb"></path><path d="M360.09,305a8.77,8.77,0,0,1,.82-4.11,4.53,4.53,0,0,1-.15,2.11C360.53,304.11,360.23,305,360.09,305Z" style="fill:#ebebeb"></path><path d="M339.12,313.33c-.07.12-.79-.23-1.48-.91s-1-1.41-.91-1.49.63.47,1.28,1.12S339.21,313.21,339.12,313.33Z" style="fill:#ebebeb"></path><path d="M326.1,314.92a5.25,5.25,0,0,1-2,1,5.11,5.11,0,0,1-2.21.49,5,5,0,0,1,2-1A5,5,0,0,1,326.1,314.92Z" style="fill:#ebebeb"></path><path d="M323.58,309.23c-.11.09-1-.7-1.91-1.77a6.83,6.83,0,0,1-1.53-2.11c.11-.09,1,.7,1.92,1.77S323.69,309.13,323.58,309.23Z" style="fill:#ebebeb"></path><path d="M321.36,298.54c-.1-.09.33-.75,1-1.46s1.26-1.22,1.36-1.12-.33.75-1,1.47S321.47,298.64,321.36,298.54Z" style="fill:#ebebeb"></path><path d="M333.78,303.56c.07.13-.83.71-2,1.29a5.57,5.57,0,0,1-2.24.83c-.06-.13.84-.71,2-1.29A5.57,5.57,0,0,1,333.78,303.56Z" style="fill:#ebebeb"></path><path d="M331.7,290.83a8.4,8.4,0,0,1-.8-5,24.87,24.87,0,0,1,.8,5Z" style="fill:#ebebeb"></path><path d="M340.14,287.41c-.13,0-.57-.67-1-1.62s-.63-1.76-.49-1.82.56.67,1,1.62S340.27,287.35,340.14,287.41Z" style="fill:#ebebeb"></path><path d="M346.44,280.91a3.35,3.35,0,0,1-2.2.91,3.44,3.44,0,0,1-2.37-.25,14.1,14.1,0,0,1,2.3-.26A14.89,14.89,0,0,1,346.44,280.91Z" style="fill:#ebebeb"></path><path d="M354.66,316.87c-.13-.05.12-.92.7-1.86s1.25-1.54,1.36-1.45-.36.83-.92,1.73S354.79,316.93,354.66,316.87Z" style="fill:#ebebeb"></path><path d="M334.42,325.14c-.07.13-.87-.18-1.79-.68s-1.6-1-1.53-1.14.87.18,1.79.68S334.49,325,334.42,325.14Z" style="fill:#ebebeb"></path><path d="M340.15,324.06c-.12-.09.26-.72.67-1.52s.7-1.47.85-1.43.05.82-.39,1.67S340.25,324.16,340.15,324.06Z" style="fill:#ebebeb"></path><path d="M358.21,257.33c.12.08-.28.84-.89,1.69s-1.21,1.47-1.32,1.39.28-.84.89-1.69S358.1,257.24,358.21,257.33Z" style="fill:#ebebeb"></path><path d="M359.34,251.87c-.15,0-.11-.84.07-1.81s.44-1.75.58-1.73.11.84-.07,1.82S359.48,251.9,359.34,251.87Z" style="fill:#ebebeb"></path><path d="M360.83,240.45c-.14,0-.11-.57.07-1.2s.44-1.09.57-1.05.11.57-.07,1.2S361,240.49,360.83,240.45Z" style="fill:#ebebeb"></path><path d="M360.8,233.21c-.15,0-.26-.29-.26-.64s.11-.65.26-.65.26.29.26.64S360.94,233.21,360.8,233.21Z" style="fill:#ebebeb"></path><path d="M378.9,173.57v-.68c-9.14-2.72-20-2.61-25.54,5l4.12,36.78h0c.27,5.14,4.49,12.3,10,16.61a5.6,5.6,0,0,0,9-5c-.46-3.95-.94-8.3-1.2-11.13a2.56,2.56,0,0,0-.19-.77c0-.07,0-.14,0-.21-.45-4.74-.84-9.74-.84-9.74s6-1.61,6.49-9.71C381.23,187,378.9,173.57,378.9,173.57Z" style="fill:#ffbe9d"></path><path d="M378.89,183.33a1,1,0,0,1-.88,1.13,1,1,0,0,1-1.14-.82,1,1,0,0,1,.88-1.13A1,1,0,0,1,378.89,183.33Z" style="fill:#263238"></path><path d="M378.89,182.2c-.11.15-.95-.35-2-.24s-1.86.75-2,.62,0-.3.37-.6a2.85,2.85,0,0,1,1.57-.65,2.67,2.67,0,0,1,1.64.35C378.81,181.91,379,182.14,378.89,182.2Z" style="fill:#263238"></path><path d="M367.46,184.81a1,1,0,0,1-.88,1.13,1,1,0,0,1-1.15-.82,1,1,0,0,1,.88-1.12A1,1,0,0,1,367.46,184.81Z" style="fill:#263238"></path><path d="M367.46,183.73c-.12.15-.95-.35-2-.24s-1.85.74-2,.62,0-.31.37-.6a2.82,2.82,0,0,1,1.57-.66,2.78,2.78,0,0,1,1.64.36C367.37,183.44,367.51,183.67,367.46,183.73Z" style="fill:#263238"></path><path d="M372.25,191.49A7.69,7.69,0,0,1,374,191c.28-.06.54-.14.57-.34a1.38,1.38,0,0,0-.27-.81l-1-2.06a38.62,38.62,0,0,1-2.42-5.41,36.68,36.68,0,0,1,2.85,5.2l1,2.08a1.68,1.68,0,0,1,.25,1.08.72.72,0,0,1-.42.46,2,2,0,0,1-.47.11A6.72,6.72,0,0,1,372.25,191.49Z" style="fill:#263238"></path><path d="M374.29,204.43a20.38,20.38,0,0,1-11-1.8s3.13,5.22,11,3.69Z" style="fill:#eb996e"></path><path d="M372,194.19a2,2,0,0,0-1.84-.56,1.8,1.8,0,0,0-1.19.79,1.16,1.16,0,0,0,0,1.32,1.34,1.34,0,0,0,1.48.22,4.18,4.18,0,0,0,1.32-1,1.24,1.24,0,0,0,.29-.36.36.36,0,0,0-.05-.41" style="fill:#eb996e"></path><path d="M369.09,192.57c.18,0,.3,1.17,1.4,1.92s2.36.49,2.39.65-.26.26-.8.33a3,3,0,0,1-2-.48,2.6,2.6,0,0,1-1.1-1.61C368.9,192.88,369,192.57,369.09,192.57Z" style="fill:#263238"></path><path d="M377.91,202.22a3.78,3.78,0,0,1,.19.55c.1.36.25.9.42,1.59a19,19,0,0,1,.57,6,32.72,32.72,0,0,1-.38,4.19,12.65,12.65,0,0,1-.61,2.3,24.72,24.72,0,0,1-1.18,2.21,6.39,6.39,0,0,1-1.69,2.08,4.59,4.59,0,0,1-2.74.65,9.88,9.88,0,0,1-2.84-.43,11.72,11.72,0,0,1-2.71-1.16,11.09,11.09,0,0,1-4.17-4,7.66,7.66,0,0,1-.84-2.64c-.18-.87-.38-1.71-.58-2.53-.4-1.64-.73-3.24-1-4.72s-.48-2.86-.69-4.13c-.39-2.48-.71-4.51-.95-6-.09-.66-.17-1.2-.23-1.63a2.31,2.31,0,0,1,0-.58,2.29,2.29,0,0,1,.15.56c.09.42.2,1,.33,1.61.28,1.48.66,3.5,1.12,6,.23,1.27.48,2.65.74,4.12s.58,3,1,4.69c.2.82.41,1.66.6,2.53a7.19,7.19,0,0,0,.8,2.5,10.66,10.66,0,0,0,4,3.78,11.63,11.63,0,0,0,2.6,1.11,9.26,9.26,0,0,0,2.69.42,4.07,4.07,0,0,0,2.45-.55,6.23,6.23,0,0,0,1.57-1.91c.41-.72.86-1.46,1.16-2.14a11.1,11.1,0,0,0,.61-2.2,32.34,32.34,0,0,0,.44-4.13,20.21,20.21,0,0,0-.4-6c-.13-.66-.24-1.19-.33-1.62A2.18,2.18,0,0,1,377.91,202.22Z" style="fill:#ebebeb"></path><polygon points="398.59 260.04 395.56 285.73 412.01 285.73 414.3 260.09 398.59 260.04" style="fill:#263238"></polygon><path d="M404,286.55s0,.42-.06,1.23a15.85,15.85,0,0,0,.23,3.5,29.3,29.3,0,0,1,.7,5.56,15.06,15.06,0,0,1-1.65,7.23,9.7,9.7,0,0,1-2.88,3.27,8.8,8.8,0,0,1-4.48,1.49,6.64,6.64,0,0,1-4.79-1.59,9.24,9.24,0,0,1-2.51-4.73c-.46-1.77-.7-3.62-1.25-5.41a17.78,17.78,0,0,0-2.65-5.06c-2.24-3.19-5.27-6.14-6.86-10.13s-1.88-8.16-1.93-12.09.13-7.76-.07-11.38c-.36-7.23-1.54-13.67-2.23-19.12a89.81,89.81,0,0,1-.89-13c0-1.54.08-2.73.14-3.53,0-.38.06-.69.07-.92a1.05,1.05,0,0,1,.05-.31s0,.1,0,.31,0,.54,0,.92c0,.81-.06,2,0,3.53a95.72,95.72,0,0,0,1.06,12.92c.73,5.43,1.95,11.88,2.34,19.15.22,3.63.08,7.46.1,11.39s.33,8.06,1.91,11.9,4.51,6.8,6.79,10a18.16,18.16,0,0,1,2.7,5.2c.57,1.85.8,3.7,1.24,5.44a8.81,8.81,0,0,0,2.36,4.51,6.17,6.17,0,0,0,4.46,1.5,8.34,8.34,0,0,0,4.27-1.4,9,9,0,0,0,2.78-3.11,14.76,14.76,0,0,0,1.68-7.05,29.46,29.46,0,0,0-.6-5.53,14.45,14.45,0,0,1-.13-3.54c0-.4.07-.71.1-.91A1.24,1.24,0,0,1,404,286.55Z" style="fill:#ebebeb"></path><path d="M403.27,285.73l-.15,2a.74.74,0,0,0,.74.8h0a.74.74,0,0,0,.74-.63l.33-2.21Z" style="fill:#ebebeb"></path><path d="M353.36,213.34c4,.15,3.73,3.92,4.16,7.88a86.53,86.53,0,0,1,.26,13.73c-.68,13.55-6.82,26.52-6.82,26.52l38.91,5.82-1.42,15L339.24,277a11.67,11.67,0,0,1-9.92-15c4.4-14.29,11.59-34.91,13.2-38.33C344.7,219,348.12,213.15,353.36,213.34Z" style="fill:#FF725E"></path><path d="M337.39,276.62l.25,0,.74.1,2.85.42c2.49.35,6.12.86,10.67,1.39,9.09,1.07,21.88,2.35,36.56,3.48l-.23.19c.45-4.76.93-9.78,1.42-14.94v0l.19.24-38.9-5.86-.21,0,.06-.2c2.53-7.83,4.47-14.31,5.62-18.86.58-2.28,1-4.07,1.24-5.29l.29-1.4c.06-.31.11-.47.11-.47s0,.17-.06.48-.12.8-.23,1.41c-.22,1.23-.6,3-1.15,5.32-1.09,4.57-3,11.07-5.48,18.92l-.14-.24,38.92,5.78.21,0,0,.21v0c-.5,5.16-1,10.18-1.44,14.95l0,.21-.21,0c-14.69-1.15-27.47-2.48-36.57-3.64-4.54-.56-8.16-1.12-10.65-1.51l-2.84-.5-.74-.14Z" style="fill:#263238"></path><path d="M397.89,265.85l-.37,3.12,11.59.27s0,3.59-1.07,4.66c0,0,1.07,2.16-.12,3.35s-1.92.84-1.92.84.48,2.39-.71,3-16.7-.33-16.7-.33l1-10,3.47-.31C394.14,267.23,396.17,266,397.89,265.85Z" style="fill:#ffbe9d"></path><path d="M359.34,234.21c3.23-1.26-2.92-11.76-1.34-16.85a54.8,54.8,0,0,0,2.26-19c-.29-2.89-1.34-5.73-1-8.62.35-3.44.09-5.7,3.13-7.35s9.62-3.73,9.08-11a29.78,29.78,0,0,0,5.44,8.07c1,1,4.32,1.35,5,.59s-2.05-7.25-2.58-8.15a6.33,6.33,0,0,0-2.31-2c-4.92-2.94-11-4.29-16.48-2.54s-9.88,7.06-9.59,12.78c.16,3,1.5,5.9,1,8.85-.41,2.6-2.17,4.75-3.49,7s-2.22,5.2-.89,7.48c.58,1,1.55,1.78,1.77,2.91s-.4,2.24-.39,3.39c0,1.49,2.59,1.56,2.75,3.05,1.63,15.08,6,17.8,7.61,21.38Z" style="fill:#263238"></path><path d="M371,171.59s0,.11,0,.32a7.36,7.36,0,0,1-.16.91,10.63,10.63,0,0,1-1.34,3.11,11.21,11.21,0,0,1-3.58,3.55,13.11,13.11,0,0,1-2.71,1.23,7.82,7.82,0,0,0-2.69,1.42c-1.54,1.41-2.3,3.46-3.76,4.78a8,8,0,0,1-4.59,2.05,7.67,7.67,0,0,1-3.37-.38,6,6,0,0,1-.84-.38c-.19-.11-.28-.17-.27-.19s.42.16,1.17.38a8.1,8.1,0,0,0,3.27.2,7.71,7.71,0,0,0,4.3-2c1.35-1.23,2.07-3.27,3.75-4.81a8,8,0,0,1,2.85-1.51,14,14,0,0,0,2.65-1.17,11.31,11.31,0,0,0,3.51-3.34A14.68,14.68,0,0,0,371,171.59Z" style="fill:#455a64"></path><path d="M344.73,182.63a3.25,3.25,0,0,0,.5,1.14,3.85,3.85,0,0,0,3,1.28,5.93,5.93,0,0,0,4.44-2.05,25.09,25.09,0,0,0,1.72-2.52,6.4,6.4,0,0,1,2.41-2.41,7.37,7.37,0,0,1,3.35-.53,13.34,13.34,0,0,0,3-.22,11.86,11.86,0,0,0,4.66-2,15.26,15.26,0,0,0,3.27-3.44s0,.11-.13.31a6.47,6.47,0,0,1-.48.84,11.14,11.14,0,0,1-2.44,2.58,11.74,11.74,0,0,1-4.78,2.23,13.85,13.85,0,0,1-3.12.26,6.9,6.9,0,0,0-3.12.49,6.06,6.06,0,0,0-2.22,2.22,23.73,23.73,0,0,1-1.78,2.56,6.27,6.27,0,0,1-4.81,2.1,4,4,0,0,1-3.17-1.53,2.09,2.09,0,0,1-.35-.92A.79.79,0,0,1,344.73,182.63Z" style="fill:#455a64"></path></g><g id="freepik--Plants--inject-68"><path d="M139.27,315.14c-16.15-4.22-30.27-14.84-38.13-28.69a55.27,55.27,0,0,1-4-45.58c4.17-11.59,12.19-21.8,15.64-33.6,3.9-13.39,1.58-27.6-.84-41.3s-4.86-27.86-1.2-41.31,15.19-26.09,30-27c13.75-.89,26.46,8.63,32.19,20.33s5.78,25.13,4.44,38-3.95,25.61-3.13,38.47c1.66,26,17.26,50.5,15.43,76.51-1,13.55-6.57,22.21-16.17,32.4-8.28,8.78-22,14.56-34.24,11.86" style="fill:#455a64"></path><path d="M144.14,444.06c-.15,0-.26-57.63-.26-128.72s.11-128.73.26-128.73.26,57.62.26,128.73S144.28,444.06,144.14,444.06Z" style="fill:#263238"></path><path d="M143.39,270.16a18.38,18.38,0,0,1-2.37-2.09c-1.42-1.34-3.34-3.23-5.37-5.4s-3.89-4.08-5.24-5.48a19.71,19.71,0,0,1-2.11-2.33,18.79,18.79,0,0,1,2.38,2.09c1.41,1.34,3.34,3.24,5.36,5.4s3.9,4.08,5.24,5.48A19.53,19.53,0,0,1,143.39,270.16Z" style="fill:#263238"></path><rect x="101.82" y="433.38" width="86.09" height="10.52" style="fill:#263238"></rect><path d="M145,216.23A17.44,17.44,0,0,0,150.2,214a14.3,14.3,0,0,0,4.22-4.24,14.15,14.15,0,0,0,2.3-6.73l0-.23.3.26a11.31,11.31,0,0,0-6.34,3.48,23.74,23.74,0,0,0-3.53,4.74c-.85,1.46-1.45,2.68-1.85,3.52a8.5,8.5,0,0,1-.66,1.31,7.46,7.46,0,0,1,.48-1.38,32.31,32.31,0,0,1,1.7-3.61,22.78,22.78,0,0,1,3.51-4.88,11.55,11.55,0,0,1,6.61-3.66l.33-.05,0,.3,0,.23a14.26,14.26,0,0,1-2.4,6.94,14.41,14.41,0,0,1-4.42,4.29A13.54,13.54,0,0,1,146.5,216a9.42,9.42,0,0,1-1.15.21C145.09,216.24,145,216.25,145,216.23Z" style="fill:#263238"></path><path d="M145,216.23a33.1,33.1,0,0,1,3.6-4.48,32.67,32.67,0,0,1,4-4.17,32.75,32.75,0,0,1-3.61,4.48A33,33,0,0,1,145,216.23Z" style="fill:#263238"></path><path d="M157.14,421.65c-8.8-7.23-10-19.47-8.74-30.29.2-1.81.16-3.74,1.14-5.26s3.09-2.45,4.65-1.56c1.29.74,1.76,2.35,2.41,3.71a10.55,10.55,0,0,0,3.93,4.39,4,4,0,0,0,3.69.63c1.63-.74,2-2.89,2.11-4.69q.38-5,.73-10.08a16.63,16.63,0,0,1,1-5.3,5.61,5.61,0,0,1,3.81-3.51,3.4,3.4,0,0,1,4,2.6,15.43,15.43,0,0,1-.12,2.25,1.89,1.89,0,0,0,1,1.87,2.16,2.16,0,0,0,2-.67,24.09,24.09,0,0,0,4.81-6.15,33.74,33.74,0,0,1,4.54-6.39A9.75,9.75,0,0,1,195,360c2.6.06,5.22,1.86,5.67,4.45s-1.23,5-3,7a40.56,40.56,0,0,1-9,7.32,3.34,3.34,0,0,0-1.52,1.4c-.49,1.17.56,2.45,1.71,2.94a20.77,20.77,0,0,0,4.17.8,4.08,4.08,0,0,1,3.29,2.39c.59,1.9-1.1,3.71-2.71,4.85a34.91,34.91,0,0,1-10.66,5.09,11.62,11.62,0,0,0-3.94,1.54,3.33,3.33,0,0,0-1.36,3.73,3.39,3.39,0,0,0,3.58,1.71,23.07,23.07,0,0,0,4.07-1.2c2.55-.74,5.73-.31,7.15,2a5.72,5.72,0,0,1,.21,5.09,13.13,13.13,0,0,1-3.08,4.24A34.81,34.81,0,0,1,174,422.53c-5.9,1.54-11.27,1.66-16.81-.88" style="fill:#FF725E"></path><g style="opacity:0.4"><path d="M157.14,421.65c-8.8-7.23-10-19.47-8.74-30.29.2-1.81.16-3.74,1.14-5.26s3.09-2.45,4.65-1.56c1.29.74,1.76,2.35,2.41,3.71a10.55,10.55,0,0,0,3.93,4.39,4,4,0,0,0,3.69.63c1.63-.74,2-2.89,2.11-4.69q.38-5,.73-10.08a16.63,16.63,0,0,1,1-5.3,5.61,5.61,0,0,1,3.81-3.51,3.4,3.4,0,0,1,4,2.6,15.43,15.43,0,0,1-.12,2.25,1.89,1.89,0,0,0,1,1.87,2.16,2.16,0,0,0,2-.67,24.09,24.09,0,0,0,4.81-6.15,33.74,33.74,0,0,1,4.54-6.39A9.75,9.75,0,0,1,195,360c2.6.06,5.22,1.86,5.67,4.45s-1.23,5-3,7a40.56,40.56,0,0,1-9,7.32,3.34,3.34,0,0,0-1.52,1.4c-.49,1.17.56,2.45,1.71,2.94a20.77,20.77,0,0,0,4.17.8,4.08,4.08,0,0,1,3.29,2.39c.59,1.9-1.1,3.71-2.71,4.85a34.91,34.91,0,0,1-10.66,5.09,11.62,11.62,0,0,0-3.94,1.54,3.33,3.33,0,0,0-1.36,3.73,3.39,3.39,0,0,0,3.58,1.71,23.07,23.07,0,0,0,4.07-1.2c2.55-.74,5.73-.31,7.15,2a5.72,5.72,0,0,1,.21,5.09,13.13,13.13,0,0,1-3.08,4.24A34.81,34.81,0,0,1,174,422.53c-5.9,1.54-11.27,1.66-16.81-.88"></path></g><path d="M198.24,361.79s-.06.06-.19.16l-.57.43c-.5.38-1.25.95-2.18,1.69a67.48,67.48,0,0,0-7.47,6.89c-1.47,1.56-3,3.35-4.64,5.29s-3.33,4-5.05,6.3a82.92,82.92,0,0,0-5,7.35c-.8,1.32-1.53,2.71-2.28,4.13s-1.5,2.86-2.26,4.32a165.29,165.29,0,0,0-7.79,16.83,79.9,79.9,0,0,0-4.16,14.55,58.64,58.64,0,0,0-1,10.16c0,1.21,0,2.15.05,2.78,0,.31,0,.55,0,.73v.24a.92.92,0,0,1,0-.24q0-.27-.06-.72c-.05-.64-.09-1.58-.11-2.79a56.15,56.15,0,0,1,.86-10.2,80.05,80.05,0,0,1,4.12-14.62,160.36,160.36,0,0,1,7.77-16.88c.77-1.45,1.52-2.89,2.27-4.31s1.48-2.82,2.29-4.15a80.63,80.63,0,0,1,5.09-7.37c1.73-2.27,3.46-4.35,5.08-6.29s3.19-3.72,4.68-5.27a64.27,64.27,0,0,1,7.56-6.83c.95-.73,1.71-1.28,2.22-1.64l.6-.41Z" style="fill:#263238"></path><path d="M172.91,389.72a4.41,4.41,0,0,1-.12-.78c0-.51-.11-1.24-.16-2.15-.12-1.81-.19-4.32-.26-7.09s-.17-5.27-.31-7.08c-.07-.9-.13-1.63-.18-2.14a3,3,0,0,1,0-.79,3.73,3.73,0,0,1,.16.78c.09.5.19,1.23.29,2.13.2,1.81.35,4.32.41,7.09s.12,5.2.16,7.09c0,.85,0,1.57.06,2.15A3.45,3.45,0,0,1,172.91,389.72Z" style="fill:#263238"></path><path d="M196.41,387.21a4,4,0,0,1-.93,0c-.6,0-1.46,0-2.53.05-2.14.06-5.1.25-8.34.6s-6.18.81-8.29,1.2c-1,.18-1.9.35-2.49.47a5.13,5.13,0,0,1-.92.15,5.11,5.11,0,0,1,.89-.28c.58-.15,1.43-.36,2.48-.58,2.1-.44,5-.93,8.29-1.29s6.23-.5,8.37-.51c1.08,0,1.94,0,2.54.06A5.92,5.92,0,0,1,196.41,387.21Z" style="fill:#263238"></path><path d="M160.79,414.67a1.79,1.79,0,0,1-.13-.3l-.33-.87c-.29-.75-.67-1.86-1.12-3.23-.91-2.74-2.05-6.57-3.24-10.8s-2.3-8.08-3.15-10.83c-.42-1.34-.76-2.45-1-3.27-.1-.35-.19-.64-.27-.89a1.05,1.05,0,0,1-.07-.31s.06.09.14.29.19.52.33.87c.28.76.66,1.86,1.11,3.23.91,2.74,2.05,6.57,3.25,10.81s2.29,8.07,3.14,10.83c.42,1.34.76,2.44,1,3.26l.27.89C160.78,414.56,160.81,414.66,160.79,414.67Z" style="fill:#263238"></path><path d="M192.36,407.17l-.32.1-.92.23-3.38.81c-2.85.68-6.78,1.67-11.12,2.77s-8.29,2.06-11.16,2.68c-1.44.31-2.6.55-3.41.7l-.93.17a1.14,1.14,0,0,1-.33,0,1.19,1.19,0,0,1,.32-.1l.92-.23,3.38-.81c2.85-.69,6.78-1.68,11.13-2.77s8.28-2.06,11.15-2.68c1.44-.32,2.6-.56,3.41-.71l.93-.17A1.34,1.34,0,0,1,192.36,407.17Z" style="fill:#263238"></path><path d="M140.86,412.76c17.35-12.57,20.95-35.42,19.91-55.89-.18-3.42.14-7-1.54-10s-5.51-4.95-8.54-3.46c-2.52,1.24-3.58,4.21-4.95,6.68a20.1,20.1,0,0,1-7.89,7.79c-2.16,1.17-4.84,1.9-7,.75-3-1.57-3.39-5.64-3.43-9q-.1-9.51-.2-19c0-3.4-.09-6.87-1.2-10.08s-3.5-6.17-6.75-7-7.22,1.08-7.85,4.42a31.55,31.55,0,0,0,0,4.24c-.07,1.41-.7,3-2,3.4s-2.72-.52-3.76-1.5c-3.56-3.37-6-7.75-8.32-12.11s-4.54-8.83-7.79-12.52-7.7-6.58-12.57-6.77-10,2.9-11.16,7.7,1.72,9.63,4.83,13.46a75.94,75.94,0,0,0,16.06,14.79,6.17,6.17,0,0,1,2.69,2.8c.78,2.25-1.33,4.54-3.55,5.32-2.52.89-5.28.67-7.92,1s-5.5,1.58-6.46,4.1c-1.34,3.5,1.63,7.09,4.53,9.43a65.13,65.13,0,0,0,19.43,10.78c2.52.87,5.17,1.63,7.21,3.35s3.32,4.76,2.14,7.17-4.29,3.24-6.92,2.8-5-1.83-7.51-2.72c-4.7-1.69-10.73-1.26-13.65,2.83-1.93,2.68-2,6.38-1,9.53a24.81,24.81,0,0,0,5.3,8.31,65.47,65.47,0,0,0,28.25,19.15c10.9,3.57,21,4.41,31.67.29" style="fill:#FF725E"></path><path d="M142.2,443.13c.33-4.54.08-7.09-.82-15.19a149.37,149.37,0,0,0-6-27.93,304.94,304.94,0,0,0-12.65-32.59q-1.9-4.25-3.76-8.37c-1.24-2.75-2.46-5.47-3.83-8.06a152,152,0,0,0-8.7-14.42c-3-4.46-6-8.58-8.82-12.41s-5.56-7.34-8.17-10.44A120.75,120.75,0,0,0,76,300c-1.7-1.49-3.06-2.6-4-3.34L71,295.86a2.27,2.27,0,0,0-.38-.27,2.12,2.12,0,0,0,.34.32l1,.88c.9.77,2.24,1.91,3.91,3.43A126.54,126.54,0,0,1,89.08,314c2.58,3.11,5.27,6.63,8.09,10.47s5.79,8,8.76,12.41a153.82,153.82,0,0,1,8.64,14.39c1.35,2.58,2.57,5.28,3.81,8l3.75,8.37a313.38,313.38,0,0,1,12.67,32.51,151.58,151.58,0,0,1,6.14,27.8c1,8.07,1.27,10.59,1,15.13" style="fill:#263238"></path><path d="M114.93,351a7,7,0,0,0,.31-1.46c.16-.94.35-2.31.56-4,.42-3.39.85-8.1,1.3-13.29s.93-9.88,1.41-13.25c.23-1.69.43-3.06.58-4a7,7,0,0,0,.17-1.48,6,6,0,0,0-.41,1.43c-.22.93-.49,2.29-.78,4-.59,3.37-1.15,8.07-1.6,13.27s-.81,9.75-1.11,13.29c-.14,1.6-.27,2.95-.36,4A6.72,6.72,0,0,0,114.93,351Z" style="fill:#263238"></path><path d="M71.08,343.55a10,10,0,0,0,1.75.17c1.12.09,2.75.19,4.75.39,4,.36,9.53,1.06,15.59,2.1s11.51,2.22,15.42,3.19c2,.47,3.54.89,4.63,1.18a9.68,9.68,0,0,0,1.71.39,10,10,0,0,0-1.64-.63c-1.08-.35-2.64-.84-4.59-1.37-3.9-1.08-9.34-2.34-15.42-3.39a153.11,153.11,0,0,0-15.67-1.91c-2-.15-3.65-.19-4.78-.19A8.27,8.27,0,0,0,71.08,343.55Z" style="fill:#263238"></path><path d="M134.8,399.22a2.24,2.24,0,0,0,.29-.54c.2-.43.43-1,.72-1.59.62-1.39,1.46-3.42,2.47-5.94,2-5,4.6-12.1,7.34-19.92s5.25-14.9,7.16-20c.94-2.47,1.71-4.5,2.29-6,.24-.65.45-1.19.61-1.64a2.06,2.06,0,0,0,.18-.58,2,2,0,0,0-.29.53l-.73,1.6c-.61,1.38-1.46,3.42-2.47,5.94-2,5-4.6,12.1-7.34,19.92s-5.24,14.89-7.16,20l-2.28,6-.62,1.64A2.32,2.32,0,0,0,134.8,399.22Z" style="fill:#263238"></path><path d="M76.39,381.49a2.67,2.67,0,0,0,.58.23l1.7.53,6.26,1.91c5.28,1.62,12.54,3.93,20.57,6.49s15.33,4.82,20.65,6.32c2.65.76,4.81,1.35,6.31,1.72l1.73.42a2.44,2.44,0,0,0,.61.11,2.67,2.67,0,0,0-.58-.23l-1.7-.54-6.25-1.9c-5.28-1.62-12.55-3.93-20.58-6.5s-15.32-4.81-20.64-6.32c-2.66-.75-4.81-1.34-6.31-1.71L77,381.59A2.19,2.19,0,0,0,76.39,381.49Z" style="fill:#263238"></path><path d="M635.66,309.61c-6.54-8.51-8.57-24.85-3.95-34.54a30.63,30.63,0,0,0,9.8,9.05,77.37,77.37,0,0,1-4.73-16.18l8.43-6.5c1.13,2.4,2,7.36,4.18,9.83-2.26-3.64-1.47-11.95,1.22-14.41a30.37,30.37,0,0,1,11.16-6.11A83.94,83.94,0,0,1,677.54,247c3.56-.45,7.55-.46,10.26,1.88,3.85,3.33,3,9.86-.29,13.76s-8.19,5.92-12.73,8.21a89.79,89.79,0,0,0-39.12,38.75" style="fill:#FF725E"></path><path d="M598.73,270.11c6.55-8.51,8.58-24.85,3.95-34.54a30.49,30.49,0,0,1-9.79,9.05,76.74,76.74,0,0,0,4.72-16.18l-8.42-6.5c-1.13,2.4-2,7.36-4.18,9.84,2.26-3.65,1.47-12-1.22-14.41a30.47,30.47,0,0,0-11.16-6.12,83.94,83.94,0,0,0-15.77-3.74c-3.56-.45-7.55-.46-10.26,1.88-3.85,3.33-3,9.87.29,13.76s8.18,5.92,12.73,8.21a89.72,89.72,0,0,1,39.11,38.75" style="fill:#FF725E"></path><path d="M616.56,252.76C620.2,248,625.62,245,630.11,241s8.28-9.85,6.83-15.66l-8.08,2.49c8.76-4.62,13.07-16.23,9.45-25.45l-2.75.5c3.38-1.85,5.45-5.56,6.12-9.36a30.25,30.25,0,0,0-.71-11.47,89,89,0,0,0-6.09-18.32c-2.38,1.63-5.42,1.81-8.23,2.44s-5.83,2.12-6.59,4.9c-1.21,4.39,4,8.44,3.34,12.95a20.84,20.84,0,0,0-9.29-7c-.14,3.38-4.2,5.87-3.75,9.23a7.44,7.44,0,0,0,1.49,3.1L623,205.56A134.61,134.61,0,0,1,603.2,196c1.16,19.79,4.4,39.05,13.36,56.73" style="fill:#FF725E"></path><path d="M679.07,260.42s-.09.07-.27.18l-.83.5c-.73.44-1.84,1-3.2,1.88a96.2,96.2,0,0,0-11.06,8c-1.13.89-2.23,1.93-3.42,3s-2.35,2.18-3.53,3.39a93.44,93.44,0,0,0-7.18,8.06c-1.19,1.49-2.28,3.1-3.43,4.74-.56.82-1.17,1.62-1.71,2.48l-1.6,2.63c-1.13,1.74-2,3.66-3,5.53-.52.93-.91,1.94-1.38,2.92s-.92,2-1.33,3a109.24,109.24,0,0,0-6.63,23.8,127,127,0,0,0-1.58,20.15c-.06,2.88.12,5.48.18,7.77s.31,4.24.43,5.86.3,2.81.39,3.69c0,.4.07.72.09,1a1.21,1.21,0,0,1,0,.33,2.88,2.88,0,0,1-.06-.33c0-.24-.08-.56-.14-.95-.12-.88-.28-2.11-.49-3.69s-.33-3.57-.52-5.86-.29-4.9-.26-7.79A123.61,123.61,0,0,1,630,330.37a107.52,107.52,0,0,1,6.62-23.92c.41-1,.9-2,1.34-3s.86-2,1.39-2.93c1-1.89,1.93-3.81,3.06-5.56l1.62-2.64c.54-.86,1.16-1.67,1.72-2.49,1.15-1.63,2.26-3.26,3.46-4.75a91.23,91.23,0,0,1,7.25-8.07c1.2-1.22,2.42-2.31,3.57-3.39s2.31-2.06,3.45-2.94a90.55,90.55,0,0,1,11.19-7.86c1.39-.84,2.51-1.39,3.26-1.8l.85-.45Z" style="fill:#263238"></path><path d="M610,366.68a2,2,0,0,1,0-.4c0-.29,0-.68,0-1.17,0-1.06-.09-2.58-.15-4.52s-.13-4.35-.16-7.14-.1-6-.07-9.47c0-7,.1-15.36.39-24.63s.85-19.45,1.64-30.13,1.84-20.82,2.91-30,2.23-17.48,3.31-24.41c.51-3.47,1-6.6,1.5-9.35s.87-5.11,1.23-7,.63-3.4.82-4.44l.23-1.15a2.08,2.08,0,0,1,.09-.39,1.72,1.72,0,0,1,0,.4c0,.28-.1.67-.18,1.16l-.72,4.46c-.33,1.93-.72,4.29-1.14,7.05s-.94,5.88-1.42,9.35c-1,6.94-2.13,15.21-3.2,24.42s-2,19.35-2.87,30-1.32,20.84-1.68,30.11-.48,17.6-.51,24.62c0,3.5,0,6.67,0,9.46s0,5.18.06,7.14,0,3.46.05,4.52v1.17A1.71,1.71,0,0,1,610,366.68Z" style="fill:#263238"></path><path d="M580.84,239.45a5.33,5.33,0,0,1,.51.64c.34.48.8,1.11,1.38,1.9s1.32,1.84,2.11,3,1.73,2.56,2.67,4.12,2,3.25,3,5.12,2.15,3.87,3.28,6c2.19,4.29,4.43,9.09,6.51,14.24s3.72,10.2,5.09,14.82c.64,2.32,1.27,4.52,1.75,6.61s.94,4,1.31,5.81.64,3.41.9,4.83.44,2.66.57,3.67.23,1.74.3,2.32a3.8,3.8,0,0,1,.07.81,6.9,6.9,0,0,1-.17-.8c-.1-.57-.23-1.34-.4-2.3s-.37-2.23-.66-3.65-.56-3-1-4.8-.82-3.72-1.37-5.79-1.14-4.26-1.79-6.57c-1.39-4.6-3.08-9.61-5.12-14.76s-4.29-9.94-6.45-14.22c-1.12-2.13-2.15-4.16-3.22-6s-2.05-3.58-3-5.13-1.83-2.94-2.6-4.16-1.45-2.26-2-3.1l-1.3-1.95A5.49,5.49,0,0,1,580.84,239.45Z" style="fill:#263238"></path><g style="opacity:0.2"><path d="M635.66,309.61c-6.54-8.51-8.57-24.85-3.95-34.54a30.63,30.63,0,0,0,9.8,9.05,77.37,77.37,0,0,1-4.73-16.18l8.43-6.5c1.13,2.4,2,7.36,4.18,9.83-2.26-3.64-1.47-11.95,1.22-14.41a30.37,30.37,0,0,1,11.16-6.11A83.94,83.94,0,0,1,677.54,247c3.56-.45,7.55-.46,10.26,1.88,3.85,3.33,3,9.86-.29,13.76s-8.19,5.92-12.73,8.21a89.79,89.79,0,0,0-39.12,38.75"></path></g><path d="M566.93,298.85c-3.48,1.45-6.18,4.26-9.32,6.36s-7.32,3.45-10.62,1.64l2.81-4.52a13.26,13.26,0,0,1-17,1.66l.75-1.6a8.24,8.24,0,0,1-6.68,2.22,18.83,18.83,0,0,1-6.86-2.27,56.15,56.15,0,0,1-10.17-6.65c1.37-1.19,2-3,2.81-4.61s4.84-3.86,4.84-3.86L524,292a13.1,13.1,0,0,1-2.76-6.78c2.08.46,4.25-1.61,6.22-.8.67.28,3.07.08,3.64.54a27.14,27.14,0,0,1,5.56,5.67c-.5-4.59-.88-4.55-2.12-9,11.85,3.88,23,8.95,32.36,17.24" style="fill:#FF725E"></path><g style="opacity:0.30000000000000004"><path d="M566.93,298.85c-3.48,1.45-6.18,4.26-9.32,6.36s-7.32,3.45-10.62,1.64l2.81-4.52a13.26,13.26,0,0,1-17,1.66l.75-1.6a8.24,8.24,0,0,1-6.68,2.22,18.83,18.83,0,0,1-6.86-2.27,56.15,56.15,0,0,1-10.17-6.65c1.37-1.19,2-3,2.81-4.61s4.84-3.86,4.84-3.86L524,292a13.1,13.1,0,0,1-2.76-6.78c2.08.46,4.25-1.61,6.22-.8.67.28,3.07.08,3.64.54a27.14,27.14,0,0,1,5.56,5.67c-.5-4.59-.88-4.55-2.12-9,11.85,3.88,23,8.95,32.36,17.24"></path></g><path d="M539.81,296a15,15,0,0,1,3.53-1.53,24.07,24.07,0,0,1,10.42-.72,36.36,36.36,0,0,1,14.42,5.69A104.1,104.1,0,0,1,595.25,326a79,79,0,0,1,7.56,13.57,70.59,70.59,0,0,1,3.41,9.91c.29,1.21.48,2.15.62,2.78l.15.73a.8.8,0,0,1,0,.25.91.91,0,0,1-.09-.24l-.19-.71c-.17-.67-.41-1.59-.71-2.75a78,78,0,0,0-3.55-9.82,81.29,81.29,0,0,0-7.63-13.45,105.56,105.56,0,0,0-26.93-26.39,36.34,36.34,0,0,0-14.21-5.73,24.22,24.22,0,0,0-10.31.55,22,22,0,0,0-2.67.95l-.68.3A.77.77,0,0,1,539.81,296Z" style="fill:#263238"></path><path d="M681.5,370.89c-6.34-19.69-28.9-32.58-49.07-28.05a48.72,48.72,0,0,0-80,10.45c-20.45-9.45-46.08-6.44-63.78,7.48l-13.18,8.31Z" style="fill:#455a64"></path></g></svg>